<?xml version="1.0" encoding="UTF-8" standalone="no" ?>
<!DOCTYPE svg PUBLIC "-//W3C//DTD SVG 1.1//EN" "http://www.w3.org/Graphics/SVG/1.1/DTD/svg11.dtd">
<svg xmlns="http://www.w3.org/2000/svg" xmlns:xlink="http://www.w3.org/1999/xlink" version="1.1" width="400" height="400" viewBox="0 0 400 400" xml:space="preserve">
<desc>Created with Fabric.js 3.6.2</desc>
<defs>
</defs>
<g transform="matrix(9.09 0 0 9.09 200 200)"  >
<path style="stroke: none; stroke-width: 1; stroke-dasharray: none; stroke-linecap: butt; stroke-dashoffset: 0; stroke-linejoin: miter; stroke-miterlimit: 4; fill: rgb(0,0,0); fill-rule: evenodd; opacity: 1;"  transform=" translate(-12, -12)" d="M 21 7.38246601 L 21 5 L 3 5 L 3 7.38199365 L 12.0000224 11.8824548 L 21 7.38246601 Z M 21 9.61853399 L 11.9999776 14.1185452 L 3 9.61810635 L 3 19 L 21 19 L 21 9.61853399 Z M 3 3 L 21 3 C 22.1045695 3 23 3.8954305 23 5 L 23 19 C 23 20.1045695 22.1045695 21 21 21 L 3 21 C 1.8954305 21 1 20.1045695 1 19 L 1 5 C 1 3.8954305 1.8954305 3 3 3 Z" stroke-linecap="round" />
</g>
</svg>