<?xml version="1.0" encoding="UTF-8" standalone="no" ?>
<!DOCTYPE svg PUBLIC "-//W3C//DTD SVG 1.1//EN" "http://www.w3.org/Graphics/SVG/1.1/DTD/svg11.dtd">
<svg xmlns="http://www.w3.org/2000/svg" xmlns:xlink="http://www.w3.org/1999/xlink" version="1.1" width="400" height="400" viewBox="0 0 400 400" xml:space="preserve">
<desc>Created with Fabric.js 3.6.2</desc>
<defs>
</defs>
<g transform="matrix(8.33 0 0 8.33 233.33 166.67)" id="Layer_21"  >
<circle style="stroke: none; stroke-width: 1; stroke-dasharray: none; stroke-linecap: butt; stroke-dashoffset: 0; stroke-linejoin: miter; stroke-miterlimit: 4; fill: rgb(0,0,0); fill-rule: nonzero; opacity: 1;"  cx="0" cy="0" r="4" />
</g>
<g transform="matrix(8.33 0 0 8.33 192.56 216.69)" id="Layer_21"  >
<path style="stroke: none; stroke-width: 1; stroke-dasharray: none; stroke-linecap: butt; stroke-dashoffset: 0; stroke-linejoin: miter; stroke-miterlimit: 4; fill: rgb(0,0,0); fill-rule: nonzero; opacity: 1;"  transform=" translate(-11.11, -14)" d="M 12.58331 8.83331 C 12.37488 8.83331 12 9.26563 12 9.5 A 8.5 8.5 0 0 1 3.5 18 a 8.52217 8.52217 0 0 1 -1.28479 -0.1073 A 11.41717 11.41717 0 0 0 20 8.41663 C 20 7.681 15.31757 8.83331 12.58331 8.83331 Z" stroke-linecap="round" />
</g>
<g transform="matrix(8.33 0 0 8.33 170.11 164.81)" id="Layer_21"  >
<path style="stroke: none; stroke-width: 1; stroke-dasharray: none; stroke-linecap: butt; stroke-dashoffset: 0; stroke-linejoin: miter; stroke-miterlimit: 4; fill: rgb(0,0,0); fill-rule: nonzero; opacity: 1;"  transform=" translate(-8.41, -7.78)" d="M 12.58331 8.83331 a 11.385 11.385 0 0 1 -8.69452 -4.028 A 3.93758 3.93758 0 0 0 3.35 6.77081 A 3.9792 3.9792 0 0 0 7.32916 10.75 c 2.12482 0 5.89844 0.02264 6.14691 -1.96179 C 13.18054 8.81116 12.8847 8.83331 12.58331 8.83331 Z" stroke-linecap="round" />
</g>
<g transform="matrix(8.33 0 0 8.33 166.48 194.85)" id="Layer_21"  >
<path style="stroke: none; stroke-width: 1; stroke-dasharray: none; stroke-linecap: butt; stroke-dashoffset: 0; stroke-linejoin: miter; stroke-miterlimit: 4; fill: rgb(0,0,0); fill-rule: nonzero; opacity: 1;"  transform=" translate(-7.98, -11.38)" d="M 5.24585 10.04163 a 3.93437 3.93437 0 0 1 -1.88977 -0.49774 c -0.00031 0.02057 -0.0061 0.03961 -0.0061 0.06024 a 3.9792 3.9792 0 0 0 3.97919 3.97919 c 2.19763 0 5.275 -1.594 5.275 -3.79165 C 12.60417 8.282 7.42285 10.04163 5.24585 10.04163 Z" stroke-linecap="round" />
</g>
<g transform="matrix(8.33 0 0 8.33 174.43 214.1)" id="Layer_21"  >
<path style="stroke: none; stroke-width: 1; stroke-dasharray: none; stroke-linecap: butt; stroke-dashoffset: 0; stroke-linejoin: miter; stroke-miterlimit: 4; fill: rgb(0,0,0); fill-rule: nonzero; opacity: 1;"  transform=" translate(-8.93, -13.69)" d="M 7.72642 12.99649 a 3.90991 3.90991 0 0 1 -3.02909 0.52286 A 3.96636 3.96636 0 0 0 8.49585 16.375 a 5.25835 5.25835 0 0 0 4.67082 -4.66667 C 13.16667 9.81478 8.82831 12.28888 7.72642 12.99649 Z" stroke-linecap="round" />
</g>
<g transform="matrix(8.33 0 0 8.33 258.12 147.36)" id="Layer_21"  >
<path style="stroke: none; stroke-width: 1; stroke-dasharray: none; stroke-linecap: butt; stroke-dashoffset: 0; stroke-linejoin: miter; stroke-miterlimit: 4; fill: rgb(0,0,0); fill-rule: nonzero; opacity: 1;"  transform=" translate(-18.97, -5.68)" d="M 17.61041 5.37915 c -1.32214 0 -1.63562 1.6604 0.075 1.6604 a 3.96629 3.96629 0 0 0 3.754 -2.71222 A 7.49909 7.49909 0 0 1 17.61041 5.37915 Z" stroke-linecap="round" />
</g>
<g transform="matrix(8.33 0 0 8.33 246.8 162.67)" id="Layer_21"  >
<path style="stroke: none; stroke-width: 1; stroke-dasharray: none; stroke-linecap: butt; stroke-dashoffset: 0; stroke-linejoin: miter; stroke-miterlimit: 4; fill: rgb(0,0,0); fill-rule: nonzero; opacity: 1;"  transform=" translate(-17.62, -7.52)" d="M 18.82916 6.5354 a 7.52209 7.52209 0 0 1 -2.93716 -0.593 c -2.70831 -1.14551 -4.35526 3.343 -0.18784 3.343 A 7.53392 7.53392 0 0 0 22.05579 5.803 A 7.50268 7.50268 0 0 1 18.82916 6.5354 Z" stroke-linecap="round" />
</g>
</svg>